<?xml version="1.0" encoding="utf-8"?>
<!-- Generator: Adobe Illustrator 24.0.0, SVG Export Plug-In . SVG Version: 6.00 Build 0)  -->
<svg version="1.1" id="Layer_1" xmlns="http://www.w3.org/2000/svg" xmlns:xlink="http://www.w3.org/1999/xlink" x="0px" y="0px"
	 viewBox="0 0 504 288" style="enable-background:new 0 0 504 288;" xml:space="preserve">
<style type="text/css">
	.st0{clip-path:url(#SVGID_3_);fill:url(#SVGID_4_);}
	.st1{clip-path:url(#SVGID_3_);fill:#636363;}
	.st2{clip-path:url(#SVGID_3_);fill:url(#SVGID_5_);}
	.st3{clip-path:url(#SVGID_3_);}
	.st4{fill:#FFFFFF;}
	.st5{fill:url(#SVGID_6_);}
	.st6{fill:url(#SVGID_7_);}
	.st7{fill:url(#SVGID_8_);}
	.st8{fill:url(#SVGID_9_);}
	.st9{fill:url(#SVGID_10_);}
	.st10{fill:url(#SVGID_11_);}
	.st11{fill:url(#SVGID_12_);}
	.st12{fill:url(#SVGID_13_);}
	.st13{fill:url(#SVGID_14_);}
	.st14{fill:url(#SVGID_15_);}
	.st15{display:none;}
	.st16{display:inline;}
	.st17{fill:#FE5E00;}
</style>
<g>
	<g>
		<defs>
			<rect id="SVGID_1_" x="-0.25" y="0.95" width="504" height="288"/>
		</defs>
		<linearGradient id="SVGID_2_" gradientUnits="userSpaceOnUse" x1="-0.2484" y1="144.9538" x2="503.7516" y2="144.9538">
			<stop  offset="0" style="stop-color:#FE9700"/>
			<stop  offset="1" style="stop-color:#FFE263"/>
		</linearGradient>
		<use xlink:href="#SVGID_1_"  style="overflow:visible;fill:url(#SVGID_2_);"/>
		<clipPath id="SVGID_3_">
			<use xlink:href="#SVGID_1_"  style="overflow:visible;"/>
		</clipPath>
		<linearGradient id="SVGID_4_" gradientUnits="userSpaceOnUse" x1="93.6441" y1="113.606" x2="53.959" y2="-2.0476">
			<stop  offset="0" style="stop-color:#FE8900"/>
			<stop  offset="1" style="stop-color:#FE5500"/>
		</linearGradient>
		<path class="st0" d="M189.28-43.01c-6.78-1.15-13.6-2.11-20.4-3.1c-47.04-6.83-46.92-46.46-74.75-44.5
			c-18.45,1.3-32.89,30.93-46.01,14.16C18.99-113.69-13.9-90.6-23.12-60.13c-4.7,15.54-2.36,25.22-3.05,46.9
			c-1.05,33.18-40.39,24.2-71.84,43.5c-29.82,18.3-30.53,50.8-8.8,67.31c33.96,25.78,71.73-6.89,101.11,19.15
			c52.52,46.56,59.39,15.75,100.46-3.25c35.67-16.49,59.6,4,92.61,3.19c26.82,0.87,47.33-8.75,62.87-28.88
			C290.05,36.21,252.34-32.34,189.28-43.01z"/>
		<path class="st1" d="M334.85-282.24c-55.7,25.72-60.67,80.78-111.37,53c-15.14-8.29-26.46-17.68-40.99-20.75
			c-41.48-8.76-53.72,51.04-91.84,45.79c-24.31-3.35-60.85-13.49-91.07,21.16c-15.53,17.81-16.22,38.76-17.92,64.31
			c-3.55,53.33-47.4,69.17-61.8,126.67C-92.42,56.99-68.3,95.4-27.1,102.66c47.4,8.36,81.08-19.77,132.55-44.58
			c45.33-21.85,74.61,12.08,128.01,22.59c36.86,7.26,68.13-11.73,90.14-41.99c28.77-39.56,31.62-74.29,36.46-115.77
			c5.34-45.82,29.03-66.55,47.65-89.35C465.27-236.93,394.9-309.97,334.85-282.24z"/>
		<linearGradient id="SVGID_5_" gradientUnits="userSpaceOnUse" x1="383.9018" y1="125.2337" x2="442.8624" y2="296.4464">
			<stop  offset="0" style="stop-color:#FE8900"/>
			<stop  offset="1" style="stop-color:#FE5500"/>
		</linearGradient>
		<path class="st2" d="M476.57,155.45c-14.08,2.97-14.79-2.38-42.6-20.73c-29.3-19.34-73.53-6.52-86.87,34.18
			c-4.55,13.88-4.69,25.1-7.81,41.21c-4.9,25.35-21.96,32.64-36.64,40.82c-16.01,8.91-58.29,26.09-49.58,77.82
			c5.03,29.85,27.26,52.83,59.94,50.29c17.84-1.39,33.95-8.8,50.98-15.25c59.29-22.46,56.66-18.01,119.26-10.94
			c0.12-1.71,2.46,0.05,11.5-0.77c42.02-3.82,46.51-37.09,53.06-74.17c9.8-55.46,46.65-59.36,54.74-90.98
			c2.54-9.94-1.2-23.43-13.71-33.45C553.38,125.04,501.63,150.16,476.57,155.45z"/>
		<path class="st1" d="M450.5,156.56c-55.7,25.72-60.67,80.78-111.37,53c-15.14-8.29-26.46-17.68-40.99-20.75
			c-41.48-8.76-53.72,51.04-91.84,45.79c-24.31-3.35-60.85-13.49-91.07,21.16c-15.53,17.81-16.22,38.76-17.92,64.31
			c-3.55,53.33-47.4,69.17-61.8,126.67c-12.28,49.06,11.83,87.47,53.04,94.73c47.4,8.36,81.08-19.77,132.55-44.58
			c45.33-21.85,74.61,12.08,128.01,22.59c36.86,7.26,68.13-11.73,90.14-41.99c28.77-39.56,31.62-74.29,36.46-115.77
			c5.34-45.82,29.03-66.55,47.65-89.35C580.93,201.88,510.56,128.83,450.5,156.56z"/>
		<g class="st3">
			<path class="st4" d="M-35.24,180.34c-2.53-26.64,6.31-54.71,23.66-75.09c17.34-20.38,43.64-33.6,70.34-35.36
				c27.37-1.81,54.19,7.58,80.12,16.65c27.38,9.58,55.7,19.49,84.46,16.04c20.55-2.47,39.95-11.67,58.71-20.57
				c22.15-10.51,45.05-21.38,69.68-20.91c8.36,0.16,16.78,1.65,24.93,3.1c11.3,2,22.99,4.07,34.49,2.54
				c17.01-2.26,33.54-12.46,46.55-28.71c11.04-13.81,18.37-29.79,25.98-49.54c4.26-11.06,8.32-22.83,7.2-34.56
				c-1.07-11.16-8.45-23.64-20.47-25.89l0.09-0.49c12.27,2.3,19.79,14.99,20.88,26.33c1.14,11.83-2.95,23.67-7.23,34.78
				c-7.62,19.79-14.97,35.81-26.05,49.67c-13.08,16.35-29.73,26.62-46.87,28.9c-11.57,1.54-23.3-0.54-34.64-2.55
				c-8.13-1.44-16.54-2.93-24.85-3.09c-24.51-0.47-47.36,10.37-69.46,20.86c-18.8,8.92-38.23,18.14-58.87,20.62
				c-4.03,0.48-8.05,0.71-12.05,0.71c-24.73,0-49.02-8.5-72.64-16.77c-25.88-9.06-52.66-18.43-79.92-16.63
				c-26.57,1.76-52.74,14.91-70,35.19c-17.26,20.28-26.06,48.21-23.54,74.72L-35.24,180.34z"/>
		</g>
		<g class="st3">
			<path class="st4" d="M82.51,357.86c-3.62-15.05-0.71-31.04,8.44-46.25c8.41-13.98,21.25-25.82,36.17-33.34
				c29.5-14.87,63.31-15.76,95.99-16.63c29.3-0.77,65.77-1.74,95.55-17.46c6.13-3.24,12.11-7.15,17.9-10.94
				c11.98-7.84,24.37-15.95,38.6-18.33c16.9-2.83,33.66,2.78,49.87,8.21c6.74,2.26,13.72,4.59,20.61,6.29
				c50.97,12.56,109.7-11.95,136.62-57.02l0.43,0.26c-13.16,22.03-34.28,39.96-59.47,50.47c-25.19,10.51-52.78,12.92-77.7,6.78
				c-6.91-1.7-13.9-4.04-20.65-6.31c-16.15-5.41-32.85-11-49.63-8.19c-14.13,2.37-26.47,10.44-38.41,18.26
				c-5.8,3.79-11.79,7.71-17.94,10.96c-29.88,15.77-66.42,16.74-95.77,17.51c-32.63,0.86-66.38,1.75-95.78,16.57
				c-27.4,13.81-52.25,46.2-44.35,79.03L82.51,357.86z"/>
		</g>
		<g class="st3">
			<g>
				<path class="st4" d="M-0.25,121.39c-26.44,0-51.28-10.28-69.95-28.95s-28.95-43.51-28.95-69.95c0-26.44,10.28-51.28,28.95-69.95
					c18.67-18.67,43.51-28.95,69.95-28.95S51.03-66.12,69.7-47.46C88.37-28.79,98.65-3.95,98.65,22.49
					c0,26.44-10.28,51.28-28.95,69.95S26.19,121.39-0.25,121.39z M-0.25-75.91c-54.26,0-98.4,44.14-98.4,98.4
					c0,54.26,44.14,98.4,98.4,98.4c54.26,0,98.4-44.14,98.4-98.4C98.15-31.77,54.01-75.91-0.25-75.91z"/>
			</g>
			<g>
				<path class="st4" d="M-0.25,109.05c-47.73,0-86.57-38.83-86.57-86.57c0-47.73,38.83-86.56,86.57-86.56
					c47.73,0,86.56,38.83,86.56,86.56C86.32,70.22,47.48,109.05-0.25,109.05z M-0.25-63.58c-47.46,0-86.07,38.61-86.07,86.06
					c0,47.46,38.61,86.07,86.07,86.07s86.06-38.61,86.06-86.07C85.82-24.97,47.21-63.58-0.25-63.58z"/>
			</g>
			<g>
				<path class="st4" d="M-0.25,96.72c-40.93,0-74.23-33.3-74.23-74.23c0-40.93,33.3-74.23,74.23-74.23
					c40.93,0,74.23,33.3,74.23,74.23C73.99,63.42,40.68,96.72-0.25,96.72z M-0.25-51.24c-40.66,0-73.73,33.08-73.73,73.73
					c0,40.66,33.08,73.73,73.73,73.73s73.73-33.08,73.73-73.73C73.49-18.17,40.41-51.24-0.25-51.24z"/>
			</g>
			<g>
				<path class="st4" d="M-0.25,84.39c-34.13,0-61.9-27.77-61.9-61.9c0-34.13,27.77-61.9,61.9-61.9s61.9,27.77,61.9,61.9
					C61.65,56.62,33.89,84.39-0.25,84.39z M-0.25-38.91c-33.86,0-61.4,27.55-61.4,61.4c0,33.86,27.55,61.4,61.4,61.4
					s61.4-27.55,61.4-61.4C61.15-11.37,33.61-38.91-0.25-38.91z"/>
			</g>
			<g>
				<path class="st4" d="M-0.25,72.06c-27.33,0-49.57-22.24-49.57-49.57c0-27.33,22.24-49.57,49.57-49.57S49.32-4.84,49.32,22.49
					C49.32,49.82,27.09,72.06-0.25,72.06z M-0.25-26.58c-27.06,0-49.07,22.01-49.07,49.07c0,27.06,22.01,49.07,49.07,49.07
					c27.06,0,49.07-22.01,49.07-49.07C48.82-4.57,26.81-26.58-0.25-26.58z"/>
			</g>
		</g>
		<g class="st3">
			<g>
				<path class="st4" d="M519.49,395.95c-26.44,0-51.28-10.28-69.95-28.95c-18.67-18.67-28.95-43.51-28.95-69.95
					s10.28-51.28,28.95-69.95c18.67-18.67,43.51-28.95,69.95-28.95c26.44,0,51.28,10.28,69.95,28.95
					c18.67,18.67,28.95,43.51,28.95,69.95S608.1,348.33,589.43,367C570.76,385.66,545.92,395.95,519.49,395.95z M519.49,198.65
					c-54.26,0-98.4,44.14-98.4,98.4s44.14,98.4,98.4,98.4c54.26,0,98.4-44.14,98.4-98.4S573.74,198.65,519.49,198.65z"/>
			</g>
			<g>
				<path class="st4" d="M519.49,383.61c-47.73,0-86.56-38.83-86.56-86.56c0-47.73,38.83-86.57,86.56-86.57
					c47.73,0,86.56,38.83,86.56,86.57C606.05,344.78,567.22,383.61,519.49,383.61z M519.49,210.99c-47.46,0-86.06,38.61-86.06,86.07
					c0,47.46,38.61,86.06,86.06,86.06s86.06-38.61,86.06-86.06C605.55,249.59,566.94,210.99,519.49,210.99z"/>
			</g>
			<g>
				<path class="st4" d="M519.49,371.28c-40.93,0-74.23-33.3-74.23-74.23c0-40.93,33.3-74.23,74.23-74.23s74.23,33.3,74.23,74.23
					C593.72,337.98,560.42,371.28,519.49,371.28z M519.49,223.32c-40.66,0-73.73,33.08-73.73,73.73c0,40.66,33.08,73.73,73.73,73.73
					c40.66,0,73.73-33.08,73.73-73.73C593.22,256.39,560.14,223.32,519.49,223.32z"/>
			</g>
			<g>
				<path class="st4" d="M519.49,358.95c-34.13,0-61.9-27.77-61.9-61.9s27.77-61.9,61.9-61.9s61.9,27.77,61.9,61.9
					S553.62,358.95,519.49,358.95z M519.49,235.65c-33.86,0-61.4,27.55-61.4,61.4c0,33.86,27.55,61.4,61.4,61.4
					c33.86,0,61.4-27.55,61.4-61.4C580.89,263.19,553.34,235.65,519.49,235.65z"/>
			</g>
			<g>
				<path class="st4" d="M519.49,346.62c-27.33,0-49.57-22.24-49.57-49.57s22.24-49.57,49.57-49.57c27.33,0,49.57,22.24,49.57,49.57
					S546.82,346.62,519.49,346.62z M519.49,247.98c-27.06,0-49.07,22.01-49.07,49.07c0,27.06,22.01,49.07,49.07,49.07
					s49.07-22.01,49.07-49.07C568.56,269.99,546.54,247.98,519.49,247.98z"/>
			</g>
		</g>
	</g>
	<g>
		<linearGradient id="SVGID_6_" gradientUnits="userSpaceOnUse" x1="43.9021" y1="79.135" x2="157.8996" y2="79.135">
			<stop  offset="0" style="stop-color:#000000"/>
			<stop  offset="0.109" style="stop-color:#060606"/>
			<stop  offset="0.252" style="stop-color:#161616"/>
			<stop  offset="0.4141" style="stop-color:#323232"/>
			<stop  offset="0.5902" style="stop-color:#575757"/>
			<stop  offset="0.7775" style="stop-color:#888888"/>
			<stop  offset="0.9716" style="stop-color:#C3C3C3"/>
			<stop  offset="1" style="stop-color:#CCCCCC"/>
		</linearGradient>
		<polygon class="st5" points="44.61,136.13 43.9,135.43 157.19,22.14 157.9,22.84 		"/>
	</g>
	<g>
		<linearGradient id="SVGID_7_" gradientUnits="userSpaceOnUse" x1="352.595" y1="211.3922" x2="474.2043" y2="211.3922">
			<stop  offset="0" style="stop-color:#000000"/>
			<stop  offset="0.109" style="stop-color:#060606"/>
			<stop  offset="0.252" style="stop-color:#161616"/>
			<stop  offset="0.4141" style="stop-color:#323232"/>
			<stop  offset="0.5902" style="stop-color:#575757"/>
			<stop  offset="0.7775" style="stop-color:#888888"/>
			<stop  offset="0.9716" style="stop-color:#C3C3C3"/>
			<stop  offset="1" style="stop-color:#CCCCCC"/>
		</linearGradient>
		<polygon class="st6" points="353.3,272.2 352.6,271.49 473.5,150.59 474.2,151.29 		"/>
	</g>
	<g>
		<linearGradient id="SVGID_8_" gradientUnits="userSpaceOnUse" x1="269.2561" y1="212.1624" x2="380.8215" y2="212.1624">
			<stop  offset="0" style="stop-color:#000000"/>
			<stop  offset="0.109" style="stop-color:#060606"/>
			<stop  offset="0.252" style="stop-color:#161616"/>
			<stop  offset="0.4141" style="stop-color:#323232"/>
			<stop  offset="0.5902" style="stop-color:#575757"/>
			<stop  offset="0.7775" style="stop-color:#888888"/>
			<stop  offset="0.9716" style="stop-color:#C3C3C3"/>
			<stop  offset="1" style="stop-color:#CCCCCC"/>
		</linearGradient>
		<polygon class="st7" points="269.96,267.95 269.26,267.24 380.11,156.38 380.82,157.09 		"/>
	</g>
	<g>
		<linearGradient id="SVGID_9_" gradientUnits="userSpaceOnUse" x1="36.2483" y1="167.7933" x2="97.0876" y2="167.7933">
			<stop  offset="0" style="stop-color:#000000"/>
			<stop  offset="0.109" style="stop-color:#060606"/>
			<stop  offset="0.252" style="stop-color:#161616"/>
			<stop  offset="0.4141" style="stop-color:#323232"/>
			<stop  offset="0.5902" style="stop-color:#575757"/>
			<stop  offset="0.7775" style="stop-color:#888888"/>
			<stop  offset="0.9716" style="stop-color:#C3C3C3"/>
			<stop  offset="1" style="stop-color:#CCCCCC"/>
		</linearGradient>
		<polygon class="st8" points="36.96,198.21 36.25,197.51 96.38,137.37 97.09,138.08 		"/>
	</g>
	<g>
		<radialGradient id="SVGID_10_" cx="415.8078" cy="166.5866" r="31.8178" gradientUnits="userSpaceOnUse">
			<stop  offset="0.198" style="stop-color:#808080"/>
			<stop  offset="0.4377" style="stop-color:#AAAAAA"/>
			<stop  offset="0.8186" style="stop-color:#E7E7E7"/>
			<stop  offset="1" style="stop-color:#FFFFFF"/>
		</radialGradient>
		<circle class="st9" cx="415.81" cy="166.59" r="31.82"/>
		<linearGradient id="SVGID_11_" gradientUnits="userSpaceOnUse" x1="415.9301" y1="175.3976" x2="415.9301" y2="136.6062">
			<stop  offset="0" style="stop-color:#FE9700"/>
			<stop  offset="1" style="stop-color:#FFE263"/>
		</linearGradient>
		<circle class="st10" cx="415.93" cy="157.41" r="23.25"/>
	</g>
	<g>
		<radialGradient id="SVGID_12_" cx="280.339" cy="225.2845" r="11.0551" gradientUnits="userSpaceOnUse">
			<stop  offset="0.198" style="stop-color:#4D4D4D"/>
			<stop  offset="0.5813" style="stop-color:#A9A9A9"/>
			<stop  offset="0.8656" style="stop-color:#E7E7E7"/>
			<stop  offset="1" style="stop-color:#FFFFFF"/>
		</radialGradient>
		<circle class="st11" cx="280.34" cy="225.28" r="11.06"/>
		<linearGradient id="SVGID_13_" gradientUnits="userSpaceOnUse" x1="280.3814" y1="228.3459" x2="280.3814" y2="214.8677">
			<stop  offset="0" style="stop-color:#FE5500"/>
			<stop  offset="1" style="stop-color:#FE8900"/>
		</linearGradient>
		<circle class="st12" cx="280.38" cy="222.1" r="8.08"/>
	</g>
	<g>
		<radialGradient id="SVGID_14_" cx="133.7358" cy="138.8041" r="16.0599" gradientUnits="userSpaceOnUse">
			<stop  offset="0.198" style="stop-color:#666666"/>
			<stop  offset="0.5222" style="stop-color:#A9A9A9"/>
			<stop  offset="0.8463" style="stop-color:#E7E7E7"/>
			<stop  offset="1" style="stop-color:#FFFFFF"/>
		</radialGradient>
		<circle class="st13" cx="133.74" cy="138.8" r="16.06"/>
		<linearGradient id="SVGID_15_" gradientUnits="userSpaceOnUse" x1="133.7976" y1="143.2515" x2="133.7976" y2="123.6717">
			<stop  offset="0" style="stop-color:#FE5500"/>
			<stop  offset="1" style="stop-color:#FE8900"/>
		</linearGradient>
		<circle class="st14" cx="133.8" cy="134.17" r="11.74"/>
	</g>
	<g>
		<circle class="st4" cx="182.35" cy="23.81" r="0.88"/>
		<circle class="st4" cx="188.35" cy="23.81" r="0.88"/>
		<circle class="st4" cx="194.35" cy="23.81" r="0.88"/>
		<circle class="st4" cx="200.35" cy="23.81" r="0.88"/>
		<circle class="st4" cx="206.35" cy="23.81" r="0.88"/>
		<circle class="st4" cx="212.35" cy="23.81" r="0.88"/>
		<circle class="st4" cx="218.35" cy="23.81" r="0.88"/>
		<circle class="st4" cx="224.35" cy="23.81" r="0.88"/>
		<circle class="st4" cx="230.35" cy="23.81" r="0.88"/>
		<circle class="st4" cx="236.35" cy="23.81" r="0.88"/>
		<circle class="st4" cx="242.35" cy="23.81" r="0.88"/>
		<circle class="st4" cx="248.35" cy="23.81" r="0.88"/>
		<circle class="st4" cx="254.35" cy="23.81" r="0.88"/>
		<circle class="st4" cx="260.35" cy="23.81" r="0.88"/>
		<circle class="st4" cx="266.35" cy="23.81" r="0.88"/>
		<circle class="st4" cx="272.35" cy="23.81" r="0.88"/>
		<circle class="st4" cx="278.35" cy="23.81" r="0.88"/>
		<circle class="st4" cx="284.35" cy="23.81" r="0.88"/>
		<circle class="st4" cx="290.35" cy="23.81" r="0.88"/>
		<circle class="st4" cx="296.35" cy="23.81" r="0.88"/>
		<circle class="st4" cx="302.35" cy="23.81" r="0.88"/>
		<circle class="st4" cx="308.35" cy="23.81" r="0.88"/>
		<circle class="st4" cx="314.35" cy="23.81" r="0.88"/>
		<circle class="st4" cx="320.35" cy="23.81" r="0.88"/>
		<circle class="st4" cx="326.35" cy="23.81" r="0.88"/>
		<circle class="st4" cx="332.35" cy="23.81" r="0.88"/>
		<circle class="st4" cx="338.35" cy="23.81" r="0.88"/>
		<circle class="st4" cx="344.35" cy="23.81" r="0.88"/>
		<circle class="st4" cx="350.35" cy="23.81" r="0.88"/>
		<circle class="st4" cx="356.35" cy="23.81" r="0.88"/>
		<circle class="st4" cx="362.35" cy="23.81" r="0.88"/>
		<circle class="st4" cx="368.35" cy="23.81" r="0.88"/>
		<circle class="st4" cx="374.35" cy="23.81" r="0.88"/>
		<circle class="st4" cx="380.35" cy="23.81" r="0.88"/>
		<circle class="st4" cx="386.35" cy="23.81" r="0.88"/>
		<circle class="st4" cx="392.35" cy="23.81" r="0.88"/>
		<circle class="st4" cx="398.35" cy="23.81" r="0.88"/>
		<circle class="st4" cx="404.35" cy="23.81" r="0.88"/>
		<circle class="st4" cx="410.35" cy="23.81" r="0.88"/>
		<circle class="st4" cx="416.35" cy="23.81" r="0.88"/>
		<circle class="st4" cx="182.35" cy="29.81" r="0.88"/>
		<circle class="st4" cx="188.35" cy="29.81" r="0.88"/>
		<circle class="st4" cx="194.35" cy="29.81" r="0.88"/>
		<circle class="st4" cx="200.35" cy="29.81" r="0.88"/>
		<circle class="st4" cx="206.35" cy="29.81" r="0.88"/>
		<circle class="st4" cx="212.35" cy="29.81" r="0.88"/>
		<circle class="st4" cx="218.35" cy="29.81" r="0.88"/>
		<circle class="st4" cx="224.35" cy="29.81" r="0.88"/>
		<circle class="st4" cx="230.35" cy="29.81" r="0.88"/>
		<circle class="st4" cx="236.35" cy="29.81" r="0.88"/>
		<circle class="st4" cx="242.35" cy="29.81" r="0.88"/>
		<circle class="st4" cx="248.35" cy="29.81" r="0.88"/>
		<circle class="st4" cx="254.35" cy="29.81" r="0.88"/>
		<circle class="st4" cx="260.35" cy="29.81" r="0.88"/>
		<circle class="st4" cx="266.35" cy="29.81" r="0.88"/>
		<circle class="st4" cx="272.35" cy="29.81" r="0.88"/>
		<circle class="st4" cx="278.35" cy="29.81" r="0.88"/>
		<circle class="st4" cx="284.35" cy="29.81" r="0.88"/>
		<circle class="st4" cx="290.35" cy="29.81" r="0.88"/>
		<circle class="st4" cx="296.35" cy="29.81" r="0.88"/>
		<circle class="st4" cx="302.35" cy="29.81" r="0.88"/>
		<circle class="st4" cx="308.35" cy="29.81" r="0.88"/>
		<circle class="st4" cx="314.35" cy="29.81" r="0.88"/>
		<circle class="st4" cx="320.35" cy="29.81" r="0.88"/>
		<circle class="st4" cx="326.35" cy="29.81" r="0.88"/>
		<circle class="st4" cx="332.35" cy="29.81" r="0.88"/>
		<circle class="st4" cx="338.35" cy="29.81" r="0.88"/>
		<circle class="st4" cx="344.35" cy="29.81" r="0.88"/>
		<circle class="st4" cx="350.35" cy="29.81" r="0.88"/>
		<circle class="st4" cx="356.35" cy="29.81" r="0.88"/>
		<circle class="st4" cx="362.35" cy="29.81" r="0.88"/>
		<circle class="st4" cx="368.35" cy="29.81" r="0.88"/>
		<circle class="st4" cx="374.35" cy="29.81" r="0.88"/>
		<circle class="st4" cx="380.35" cy="29.81" r="0.88"/>
		<circle class="st4" cx="386.35" cy="29.81" r="0.88"/>
		<circle class="st4" cx="392.35" cy="29.81" r="0.88"/>
		<circle class="st4" cx="398.35" cy="29.81" r="0.88"/>
		<circle class="st4" cx="404.35" cy="29.81" r="0.88"/>
		<circle class="st4" cx="410.35" cy="29.81" r="0.88"/>
		<circle class="st4" cx="416.35" cy="29.81" r="0.88"/>
		<circle class="st4" cx="182.35" cy="35.81" r="0.88"/>
		<circle class="st4" cx="188.35" cy="35.81" r="0.88"/>
		<circle class="st4" cx="194.35" cy="35.81" r="0.88"/>
		<circle class="st4" cx="200.35" cy="35.81" r="0.88"/>
		<circle class="st4" cx="206.35" cy="35.81" r="0.88"/>
		<circle class="st4" cx="212.35" cy="35.81" r="0.88"/>
		<circle class="st4" cx="218.35" cy="35.81" r="0.88"/>
		<circle class="st4" cx="224.35" cy="35.81" r="0.88"/>
		<circle class="st4" cx="230.35" cy="35.81" r="0.88"/>
		<circle class="st4" cx="236.35" cy="35.81" r="0.88"/>
		<circle class="st4" cx="242.35" cy="35.81" r="0.88"/>
		<circle class="st4" cx="248.35" cy="35.81" r="0.88"/>
		<circle class="st4" cx="254.35" cy="35.81" r="0.88"/>
		<circle class="st4" cx="260.35" cy="35.81" r="0.88"/>
		<circle class="st4" cx="266.35" cy="35.81" r="0.88"/>
		<circle class="st4" cx="272.35" cy="35.81" r="0.88"/>
		<circle class="st4" cx="278.35" cy="35.81" r="0.88"/>
		<circle class="st4" cx="284.35" cy="35.81" r="0.88"/>
		<circle class="st4" cx="290.35" cy="35.81" r="0.88"/>
		<circle class="st4" cx="296.35" cy="35.81" r="0.88"/>
		<circle class="st4" cx="302.35" cy="35.81" r="0.88"/>
		<circle class="st4" cx="308.35" cy="35.81" r="0.88"/>
		<circle class="st4" cx="314.35" cy="35.81" r="0.88"/>
		<circle class="st4" cx="320.35" cy="35.81" r="0.88"/>
		<circle class="st4" cx="326.35" cy="35.81" r="0.88"/>
		<circle class="st4" cx="332.35" cy="35.81" r="0.88"/>
		<circle class="st4" cx="338.35" cy="35.81" r="0.88"/>
		<circle class="st4" cx="344.35" cy="35.81" r="0.88"/>
		<circle class="st4" cx="350.35" cy="35.81" r="0.88"/>
		<circle class="st4" cx="356.35" cy="35.81" r="0.88"/>
		<circle class="st4" cx="362.35" cy="35.81" r="0.88"/>
		<circle class="st4" cx="368.35" cy="35.81" r="0.88"/>
		<circle class="st4" cx="374.35" cy="35.81" r="0.88"/>
		<circle class="st4" cx="380.35" cy="35.81" r="0.88"/>
		<circle class="st4" cx="386.35" cy="35.81" r="0.88"/>
		<circle class="st4" cx="392.35" cy="35.81" r="0.88"/>
		<circle class="st4" cx="398.35" cy="35.81" r="0.88"/>
		<circle class="st4" cx="404.35" cy="35.81" r="0.88"/>
		<circle class="st4" cx="410.35" cy="35.81" r="0.88"/>
		<circle class="st4" cx="416.35" cy="35.81" r="0.88"/>
		<circle class="st4" cx="182.35" cy="41.81" r="0.88"/>
		<circle class="st4" cx="188.35" cy="41.81" r="0.88"/>
		<circle class="st4" cx="194.35" cy="41.81" r="0.88"/>
		<circle class="st4" cx="200.35" cy="41.81" r="0.88"/>
		<circle class="st4" cx="206.35" cy="41.81" r="0.88"/>
		<circle class="st4" cx="212.35" cy="41.81" r="0.88"/>
		<circle class="st4" cx="218.35" cy="41.81" r="0.88"/>
		<circle class="st4" cx="224.35" cy="41.81" r="0.88"/>
		<circle class="st4" cx="230.35" cy="41.81" r="0.88"/>
		<circle class="st4" cx="236.35" cy="41.81" r="0.88"/>
		<circle class="st4" cx="242.35" cy="41.81" r="0.88"/>
		<circle class="st4" cx="248.35" cy="41.81" r="0.88"/>
		<circle class="st4" cx="254.35" cy="41.81" r="0.88"/>
		<circle class="st4" cx="260.35" cy="41.81" r="0.88"/>
		<circle class="st4" cx="266.35" cy="41.81" r="0.88"/>
		<circle class="st4" cx="272.35" cy="41.81" r="0.88"/>
		<circle class="st4" cx="278.35" cy="41.81" r="0.88"/>
		<circle class="st4" cx="284.35" cy="41.81" r="0.88"/>
		<circle class="st4" cx="290.35" cy="41.81" r="0.88"/>
		<circle class="st4" cx="296.35" cy="41.81" r="0.88"/>
		<circle class="st4" cx="302.35" cy="41.81" r="0.88"/>
		<circle class="st4" cx="308.35" cy="41.81" r="0.88"/>
		<circle class="st4" cx="314.35" cy="41.81" r="0.88"/>
		<circle class="st4" cx="320.35" cy="41.81" r="0.88"/>
		<circle class="st4" cx="326.35" cy="41.81" r="0.88"/>
		<circle class="st4" cx="332.35" cy="41.81" r="0.88"/>
		<circle class="st4" cx="338.35" cy="41.81" r="0.88"/>
		<circle class="st4" cx="344.35" cy="41.81" r="0.88"/>
		<circle class="st4" cx="350.35" cy="41.81" r="0.88"/>
		<circle class="st4" cx="356.35" cy="41.81" r="0.88"/>
		<circle class="st4" cx="362.35" cy="41.81" r="0.88"/>
		<circle class="st4" cx="368.35" cy="41.81" r="0.88"/>
		<circle class="st4" cx="374.35" cy="41.81" r="0.88"/>
		<circle class="st4" cx="380.35" cy="41.81" r="0.88"/>
		<circle class="st4" cx="386.35" cy="41.81" r="0.88"/>
		<circle class="st4" cx="392.35" cy="41.81" r="0.88"/>
		<circle class="st4" cx="398.35" cy="41.81" r="0.88"/>
		<circle class="st4" cx="404.35" cy="41.81" r="0.88"/>
		<circle class="st4" cx="410.35" cy="41.81" r="0.88"/>
		<circle class="st4" cx="416.35" cy="41.81" r="0.88"/>
		<circle class="st4" cx="182.35" cy="47.81" r="0.88"/>
		<circle class="st4" cx="188.35" cy="47.81" r="0.88"/>
		<circle class="st4" cx="194.35" cy="47.81" r="0.88"/>
		<circle class="st4" cx="200.35" cy="47.81" r="0.88"/>
		<circle class="st4" cx="206.35" cy="47.81" r="0.88"/>
		<circle class="st4" cx="212.35" cy="47.81" r="0.88"/>
		<circle class="st4" cx="218.35" cy="47.81" r="0.88"/>
		<circle class="st4" cx="224.35" cy="47.81" r="0.88"/>
		<circle class="st4" cx="230.35" cy="47.81" r="0.88"/>
		<circle class="st4" cx="236.35" cy="47.81" r="0.88"/>
		<circle class="st4" cx="242.35" cy="47.81" r="0.88"/>
		<circle class="st4" cx="248.35" cy="47.81" r="0.88"/>
		<circle class="st4" cx="254.35" cy="47.81" r="0.88"/>
		<circle class="st4" cx="260.35" cy="47.81" r="0.88"/>
		<circle class="st4" cx="266.35" cy="47.81" r="0.88"/>
		<circle class="st4" cx="272.35" cy="47.81" r="0.88"/>
		<circle class="st4" cx="278.35" cy="47.81" r="0.88"/>
		<circle class="st4" cx="284.35" cy="47.81" r="0.88"/>
		<circle class="st4" cx="290.35" cy="47.81" r="0.88"/>
		<circle class="st4" cx="296.35" cy="47.81" r="0.88"/>
		<circle class="st4" cx="302.35" cy="47.81" r="0.88"/>
		<circle class="st4" cx="308.35" cy="47.81" r="0.88"/>
		<circle class="st4" cx="314.35" cy="47.81" r="0.88"/>
		<circle class="st4" cx="320.35" cy="47.81" r="0.88"/>
		<circle class="st4" cx="326.35" cy="47.81" r="0.88"/>
		<circle class="st4" cx="332.35" cy="47.81" r="0.88"/>
		<circle class="st4" cx="338.35" cy="47.81" r="0.88"/>
		<circle class="st4" cx="344.35" cy="47.81" r="0.88"/>
		<circle class="st4" cx="350.35" cy="47.81" r="0.88"/>
		<circle class="st4" cx="356.35" cy="47.81" r="0.88"/>
		<circle class="st4" cx="362.35" cy="47.81" r="0.88"/>
		<circle class="st4" cx="368.35" cy="47.81" r="0.88"/>
		<circle class="st4" cx="374.35" cy="47.81" r="0.88"/>
		<circle class="st4" cx="380.35" cy="47.81" r="0.88"/>
		<circle class="st4" cx="386.35" cy="47.81" r="0.88"/>
		<circle class="st4" cx="392.35" cy="47.81" r="0.88"/>
		<circle class="st4" cx="398.35" cy="47.81" r="0.88"/>
		<circle class="st4" cx="404.35" cy="47.81" r="0.88"/>
		<circle class="st4" cx="410.35" cy="47.81" r="0.88"/>
		<circle class="st4" cx="416.35" cy="47.81" r="0.88"/>
		<circle class="st4" cx="182.35" cy="53.81" r="0.88"/>
		<circle class="st4" cx="188.35" cy="53.81" r="0.88"/>
		<circle class="st4" cx="194.35" cy="53.81" r="0.88"/>
		<circle class="st4" cx="200.35" cy="53.81" r="0.88"/>
		<circle class="st4" cx="206.35" cy="53.81" r="0.88"/>
		<circle class="st4" cx="212.35" cy="53.81" r="0.88"/>
		<circle class="st4" cx="218.35" cy="53.81" r="0.88"/>
		<circle class="st4" cx="224.35" cy="53.81" r="0.88"/>
		<circle class="st4" cx="230.35" cy="53.81" r="0.88"/>
		<circle class="st4" cx="236.35" cy="53.81" r="0.88"/>
		<circle class="st4" cx="242.35" cy="53.81" r="0.88"/>
		<circle class="st4" cx="248.35" cy="53.81" r="0.88"/>
		<circle class="st4" cx="254.35" cy="53.81" r="0.88"/>
		<circle class="st4" cx="260.35" cy="53.81" r="0.88"/>
		<circle class="st4" cx="266.35" cy="53.81" r="0.88"/>
		<circle class="st4" cx="272.35" cy="53.81" r="0.88"/>
		<circle class="st4" cx="278.35" cy="53.81" r="0.88"/>
		<circle class="st4" cx="284.35" cy="53.81" r="0.88"/>
		<circle class="st4" cx="290.35" cy="53.81" r="0.88"/>
		<circle class="st4" cx="296.35" cy="53.81" r="0.88"/>
		<circle class="st4" cx="302.35" cy="53.81" r="0.88"/>
		<circle class="st4" cx="308.35" cy="53.81" r="0.88"/>
		<circle class="st4" cx="314.35" cy="53.81" r="0.88"/>
		<circle class="st4" cx="320.35" cy="53.81" r="0.88"/>
		<circle class="st4" cx="326.35" cy="53.81" r="0.88"/>
		<circle class="st4" cx="332.35" cy="53.81" r="0.88"/>
		<circle class="st4" cx="338.35" cy="53.81" r="0.88"/>
		<circle class="st4" cx="344.35" cy="53.81" r="0.88"/>
		<circle class="st4" cx="350.35" cy="53.81" r="0.88"/>
		<circle class="st4" cx="356.35" cy="53.81" r="0.88"/>
		<circle class="st4" cx="362.35" cy="53.81" r="0.88"/>
		<circle class="st4" cx="368.35" cy="53.81" r="0.88"/>
		<circle class="st4" cx="374.35" cy="53.81" r="0.88"/>
		<circle class="st4" cx="380.35" cy="53.81" r="0.88"/>
		<circle class="st4" cx="386.35" cy="53.81" r="0.88"/>
		<circle class="st4" cx="392.35" cy="53.81" r="0.88"/>
		<circle class="st4" cx="398.35" cy="53.81" r="0.88"/>
		<circle class="st4" cx="404.35" cy="53.81" r="0.88"/>
		<circle class="st4" cx="410.35" cy="53.81" r="0.88"/>
		<circle class="st4" cx="416.35" cy="53.81" r="0.88"/>
		<circle class="st4" cx="182.35" cy="59.81" r="0.88"/>
		<circle class="st4" cx="188.35" cy="59.81" r="0.88"/>
		<circle class="st4" cx="194.35" cy="59.81" r="0.88"/>
		<circle class="st4" cx="200.35" cy="59.81" r="0.88"/>
		<circle class="st4" cx="206.35" cy="59.81" r="0.88"/>
		<circle class="st4" cx="212.35" cy="59.81" r="0.88"/>
		<circle class="st4" cx="218.35" cy="59.81" r="0.88"/>
		<circle class="st4" cx="224.35" cy="59.81" r="0.88"/>
		<circle class="st4" cx="230.35" cy="59.81" r="0.88"/>
		<circle class="st4" cx="236.35" cy="59.81" r="0.88"/>
		<circle class="st4" cx="242.35" cy="59.81" r="0.88"/>
		<circle class="st4" cx="248.35" cy="59.81" r="0.88"/>
		<circle class="st4" cx="254.35" cy="59.81" r="0.88"/>
		<circle class="st4" cx="260.35" cy="59.81" r="0.88"/>
		<circle class="st4" cx="266.35" cy="59.81" r="0.88"/>
		<circle class="st4" cx="272.35" cy="59.81" r="0.88"/>
		<circle class="st4" cx="278.35" cy="59.81" r="0.88"/>
		<circle class="st4" cx="284.35" cy="59.81" r="0.88"/>
		<circle class="st4" cx="290.35" cy="59.81" r="0.88"/>
		<circle class="st4" cx="296.35" cy="59.81" r="0.88"/>
		<circle class="st4" cx="302.35" cy="59.81" r="0.88"/>
		<circle class="st4" cx="308.35" cy="59.81" r="0.88"/>
		<circle class="st4" cx="314.35" cy="59.81" r="0.88"/>
		<circle class="st4" cx="320.35" cy="59.81" r="0.88"/>
		<circle class="st4" cx="326.35" cy="59.81" r="0.88"/>
		<circle class="st4" cx="332.35" cy="59.81" r="0.88"/>
		<circle class="st4" cx="338.35" cy="59.81" r="0.88"/>
		<circle class="st4" cx="344.35" cy="59.81" r="0.88"/>
		<circle class="st4" cx="350.35" cy="59.81" r="0.88"/>
		<circle class="st4" cx="356.35" cy="59.81" r="0.88"/>
		<circle class="st4" cx="362.35" cy="59.81" r="0.88"/>
		<circle class="st4" cx="368.35" cy="59.81" r="0.88"/>
		<circle class="st4" cx="374.35" cy="59.81" r="0.88"/>
		<circle class="st4" cx="380.35" cy="59.81" r="0.88"/>
		<circle class="st4" cx="386.35" cy="59.81" r="0.88"/>
		<circle class="st4" cx="392.35" cy="59.81" r="0.88"/>
		<circle class="st4" cx="398.35" cy="59.81" r="0.88"/>
		<circle class="st4" cx="404.35" cy="59.81" r="0.88"/>
		<circle class="st4" cx="410.35" cy="59.81" r="0.88"/>
		<circle class="st4" cx="416.35" cy="59.81" r="0.88"/>
	</g>
	<g>
		<path class="st4" d="M19.88,247.97c0.49,0,0.88-0.39,0.88-0.88s-0.39-0.88-0.88-0.88c-0.49,0-0.88,0.39-0.88,0.88
			S19.39,247.97,19.88,247.97z"/>
		<path class="st4" d="M25.88,247.97c0.49,0,0.88-0.39,0.88-0.88s-0.39-0.88-0.88-0.88c-0.49,0-0.88,0.39-0.88,0.88
			S25.39,247.97,25.88,247.97z"/>
		<path class="st4" d="M31.88,247.97c0.49,0,0.88-0.39,0.88-0.88s-0.39-0.88-0.88-0.88c-0.49,0-0.88,0.39-0.88,0.88
			S31.39,247.97,31.88,247.97z"/>
		<path class="st4" d="M37.88,247.97c0.49,0,0.88-0.39,0.88-0.88s-0.39-0.88-0.88-0.88c-0.49,0-0.88,0.39-0.88,0.88
			S37.39,247.97,37.88,247.97z"/>
		<path class="st4" d="M43.88,247.97c0.49,0,0.88-0.39,0.88-0.88s-0.39-0.88-0.88-0.88c-0.49,0-0.88,0.39-0.88,0.88
			S43.39,247.97,43.88,247.97z"/>
		<path class="st4" d="M49.88,247.97c0.49,0,0.88-0.39,0.88-0.88s-0.39-0.88-0.88-0.88c-0.49,0-0.88,0.39-0.88,0.88
			S49.39,247.97,49.88,247.97z"/>
		<path class="st4" d="M55.88,247.97c0.49,0,0.88-0.39,0.88-0.88s-0.39-0.88-0.88-0.88c-0.49,0-0.88,0.39-0.88,0.88
			S55.39,247.97,55.88,247.97z"/>
		<path class="st4" d="M61.88,247.97c0.49,0,0.88-0.39,0.88-0.88s-0.39-0.88-0.88-0.88c-0.49,0-0.88,0.39-0.88,0.88
			S61.39,247.97,61.88,247.97z"/>
		<path class="st4" d="M67.88,247.97c0.49,0,0.88-0.39,0.88-0.88s-0.39-0.88-0.88-0.88c-0.49,0-0.88,0.39-0.88,0.88
			S67.39,247.97,67.88,247.97z"/>
		<path class="st4" d="M73.88,247.97c0.49,0,0.88-0.39,0.88-0.88s-0.39-0.88-0.88-0.88c-0.49,0-0.88,0.39-0.88,0.88
			S73.39,247.97,73.88,247.97z"/>
		<path class="st4" d="M79.88,247.97c0.49,0,0.88-0.39,0.88-0.88s-0.39-0.88-0.88-0.88c-0.49,0-0.88,0.39-0.88,0.88
			S79.39,247.97,79.88,247.97z"/>
		<path class="st4" d="M85.88,247.97c0.49,0,0.88-0.39,0.88-0.88s-0.39-0.88-0.88-0.88c-0.49,0-0.88,0.39-0.88,0.88
			S85.39,247.97,85.88,247.97z"/>
		<path class="st4" d="M91.88,247.97c0.49,0,0.88-0.39,0.88-0.88s-0.39-0.88-0.88-0.88c-0.49,0-0.88,0.39-0.88,0.88
			S91.39,247.97,91.88,247.97z"/>
		<path class="st4" d="M97.88,247.97c0.49,0,0.88-0.39,0.88-0.88s-0.39-0.88-0.88-0.88c-0.49,0-0.88,0.39-0.88,0.88
			S97.39,247.97,97.88,247.97z"/>
		<path class="st4" d="M103.88,247.97c0.49,0,0.88-0.39,0.88-0.88s-0.39-0.88-0.88-0.88c-0.49,0-0.88,0.39-0.88,0.88
			S103.39,247.97,103.88,247.97z"/>
		<path class="st4" d="M109.88,247.97c0.49,0,0.88-0.39,0.88-0.88s-0.39-0.88-0.88-0.88c-0.49,0-0.88,0.39-0.88,0.88
			S109.39,247.97,109.88,247.97z"/>
		<path class="st4" d="M115.88,247.97c0.49,0,0.88-0.39,0.88-0.88s-0.39-0.88-0.88-0.88c-0.49,0-0.88,0.39-0.88,0.88
			S115.39,247.97,115.88,247.97z"/>
		<path class="st4" d="M121.88,247.97c0.49,0,0.88-0.39,0.88-0.88s-0.39-0.88-0.88-0.88c-0.49,0-0.88,0.39-0.88,0.88
			S121.39,247.97,121.88,247.97z"/>
		<path class="st4" d="M127.88,247.97c0.49,0,0.88-0.39,0.88-0.88s-0.39-0.88-0.88-0.88c-0.49,0-0.88,0.39-0.88,0.88
			S127.39,247.97,127.88,247.97z"/>
		<path class="st4" d="M133.88,247.97c0.49,0,0.88-0.39,0.88-0.88s-0.39-0.88-0.88-0.88c-0.49,0-0.88,0.39-0.88,0.88
			S133.39,247.97,133.88,247.97z"/>
		<path class="st4" d="M139.88,247.97c0.49,0,0.88-0.39,0.88-0.88s-0.39-0.88-0.88-0.88c-0.49,0-0.88,0.39-0.88,0.88
			S139.39,247.97,139.88,247.97z"/>
		<path class="st4" d="M145.88,247.97c0.49,0,0.88-0.39,0.88-0.88s-0.39-0.88-0.88-0.88c-0.49,0-0.88,0.39-0.88,0.88
			S145.39,247.97,145.88,247.97z"/>
		<path class="st4" d="M151.88,247.97c0.49,0,0.88-0.39,0.88-0.88s-0.39-0.88-0.88-0.88c-0.49,0-0.88,0.39-0.88,0.88
			S151.39,247.97,151.88,247.97z"/>
		<path class="st4" d="M157.88,247.97c0.49,0,0.88-0.39,0.88-0.88s-0.39-0.88-0.88-0.88c-0.49,0-0.88,0.39-0.88,0.88
			S157.39,247.97,157.88,247.97z"/>
		<path class="st4" d="M163.88,247.97c0.49,0,0.88-0.39,0.88-0.88s-0.39-0.88-0.88-0.88c-0.49,0-0.88,0.39-0.88,0.88
			S163.39,247.97,163.88,247.97z"/>
		<path class="st4" d="M169.88,247.97c0.49,0,0.88-0.39,0.88-0.88s-0.39-0.88-0.88-0.88c-0.49,0-0.88,0.39-0.88,0.88
			S169.39,247.97,169.88,247.97z"/>
		<path class="st4" d="M175.88,247.97c0.49,0,0.88-0.39,0.88-0.88s-0.39-0.88-0.88-0.88c-0.49,0-0.88,0.39-0.88,0.88
			S175.39,247.97,175.88,247.97z"/>
		<path class="st4" d="M181.88,247.97c0.49,0,0.88-0.39,0.88-0.88s-0.39-0.88-0.88-0.88c-0.49,0-0.88,0.39-0.88,0.88
			S181.39,247.97,181.88,247.97z"/>
		<path class="st4" d="M187.88,247.97c0.49,0,0.88-0.39,0.88-0.88s-0.39-0.88-0.88-0.88c-0.49,0-0.88,0.39-0.88,0.88
			S187.39,247.97,187.88,247.97z"/>
		<path class="st4" d="M193.88,247.97c0.49,0,0.88-0.39,0.88-0.88s-0.39-0.88-0.88-0.88c-0.49,0-0.88,0.39-0.88,0.88
			S193.39,247.97,193.88,247.97z"/>
		<path class="st4" d="M199.88,247.97c0.49,0,0.88-0.39,0.88-0.88s-0.39-0.88-0.88-0.88c-0.49,0-0.88,0.39-0.88,0.88
			S199.39,247.97,199.88,247.97z"/>
		<path class="st4" d="M205.88,247.97c0.49,0,0.88-0.39,0.88-0.88s-0.39-0.88-0.88-0.88c-0.49,0-0.88,0.39-0.88,0.88
			S205.39,247.97,205.88,247.97z"/>
		<path class="st4" d="M211.88,247.97c0.49,0,0.88-0.39,0.88-0.88s-0.39-0.88-0.88-0.88c-0.49,0-0.88,0.39-0.88,0.88
			S211.39,247.97,211.88,247.97z"/>
		<path class="st4" d="M217.88,247.97c0.49,0,0.88-0.39,0.88-0.88s-0.39-0.88-0.88-0.88c-0.49,0-0.88,0.39-0.88,0.88
			S217.39,247.97,217.88,247.97z"/>
		<path class="st4" d="M223.88,247.97c0.49,0,0.88-0.39,0.88-0.88s-0.39-0.88-0.88-0.88c-0.49,0-0.88,0.39-0.88,0.88
			S223.39,247.97,223.88,247.97z"/>
		<path class="st4" d="M229.88,247.97c0.49,0,0.88-0.39,0.88-0.88s-0.39-0.88-0.88-0.88c-0.49,0-0.88,0.39-0.88,0.88
			S229.39,247.97,229.88,247.97z"/>
		<path class="st4" d="M235.88,247.97c0.49,0,0.88-0.39,0.88-0.88s-0.39-0.88-0.88-0.88c-0.49,0-0.88,0.39-0.88,0.88
			S235.39,247.97,235.88,247.97z"/>
		<path class="st4" d="M241.88,247.97c0.49,0,0.88-0.39,0.88-0.88s-0.39-0.88-0.88-0.88c-0.49,0-0.88,0.39-0.88,0.88
			S241.39,247.97,241.88,247.97z"/>
		<path class="st4" d="M247.88,247.97c0.49,0,0.88-0.39,0.88-0.88s-0.39-0.88-0.88-0.88c-0.49,0-0.88,0.39-0.88,0.88
			S247.39,247.97,247.88,247.97z"/>
		<path class="st4" d="M253.88,247.97c0.49,0,0.88-0.39,0.88-0.88s-0.39-0.88-0.88-0.88c-0.49,0-0.88,0.39-0.88,0.88
			S253.39,247.97,253.88,247.97z"/>
		<path class="st4" d="M259.88,247.97c0.49,0,0.88-0.39,0.88-0.88s-0.39-0.88-0.88-0.88c-0.49,0-0.88,0.39-0.88,0.88
			S259.39,247.97,259.88,247.97z"/>
		<path class="st4" d="M265.88,247.97c0.49,0,0.88-0.39,0.88-0.88s-0.39-0.88-0.88-0.88c-0.49,0-0.88,0.39-0.88,0.88
			S265.39,247.97,265.88,247.97z"/>
		<path class="st4" d="M271.88,247.97c0.49,0,0.88-0.39,0.88-0.88s-0.39-0.88-0.88-0.88c-0.49,0-0.88,0.39-0.88,0.88
			S271.39,247.97,271.88,247.97z"/>
		<path class="st4" d="M19.88,253.97c0.49,0,0.88-0.39,0.88-0.88s-0.39-0.88-0.88-0.88c-0.49,0-0.88,0.39-0.88,0.88
			S19.39,253.97,19.88,253.97z"/>
		<path class="st4" d="M25.88,253.97c0.49,0,0.88-0.39,0.88-0.88s-0.39-0.88-0.88-0.88c-0.49,0-0.88,0.39-0.88,0.88
			S25.39,253.97,25.88,253.97z"/>
		<path class="st4" d="M31.88,253.97c0.49,0,0.88-0.39,0.88-0.88s-0.39-0.88-0.88-0.88c-0.49,0-0.88,0.39-0.88,0.88
			S31.39,253.97,31.88,253.97z"/>
		<path class="st4" d="M37.88,253.97c0.49,0,0.88-0.39,0.88-0.88s-0.39-0.88-0.88-0.88c-0.49,0-0.88,0.39-0.88,0.88
			S37.39,253.97,37.88,253.97z"/>
		<path class="st4" d="M43.88,253.97c0.49,0,0.88-0.39,0.88-0.88s-0.39-0.88-0.88-0.88c-0.49,0-0.88,0.39-0.88,0.88
			S43.39,253.97,43.88,253.97z"/>
		<path class="st4" d="M49.88,253.97c0.49,0,0.88-0.39,0.88-0.88s-0.39-0.88-0.88-0.88c-0.49,0-0.88,0.39-0.88,0.88
			S49.39,253.97,49.88,253.97z"/>
		<path class="st4" d="M55.88,253.97c0.49,0,0.88-0.39,0.88-0.88s-0.39-0.88-0.88-0.88c-0.49,0-0.88,0.39-0.88,0.88
			S55.39,253.97,55.88,253.97z"/>
		<path class="st4" d="M61.88,253.97c0.49,0,0.88-0.39,0.88-0.88s-0.39-0.88-0.88-0.88c-0.49,0-0.88,0.39-0.88,0.88
			S61.39,253.97,61.88,253.97z"/>
		<path class="st4" d="M67.88,253.97c0.49,0,0.88-0.39,0.88-0.88s-0.39-0.88-0.88-0.88c-0.49,0-0.88,0.39-0.88,0.88
			S67.39,253.97,67.88,253.97z"/>
		<path class="st4" d="M73.88,253.97c0.49,0,0.88-0.39,0.88-0.88s-0.39-0.88-0.88-0.88c-0.49,0-0.88,0.39-0.88,0.88
			S73.39,253.97,73.88,253.97z"/>
		<path class="st4" d="M79.88,253.97c0.49,0,0.88-0.39,0.88-0.88s-0.39-0.88-0.88-0.88c-0.49,0-0.88,0.39-0.88,0.88
			S79.39,253.97,79.88,253.97z"/>
		<path class="st4" d="M85.88,253.97c0.49,0,0.88-0.39,0.88-0.88s-0.39-0.88-0.88-0.88c-0.49,0-0.88,0.39-0.88,0.88
			S85.39,253.97,85.88,253.97z"/>
		<path class="st4" d="M91.88,253.97c0.49,0,0.88-0.39,0.88-0.88s-0.39-0.88-0.88-0.88c-0.49,0-0.88,0.39-0.88,0.88
			S91.39,253.97,91.88,253.97z"/>
		<path class="st4" d="M97.88,253.97c0.49,0,0.88-0.39,0.88-0.88s-0.39-0.88-0.88-0.88c-0.49,0-0.88,0.39-0.88,0.88
			S97.39,253.97,97.88,253.97z"/>
		<path class="st4" d="M103.88,253.97c0.49,0,0.88-0.39,0.88-0.88s-0.39-0.88-0.88-0.88c-0.49,0-0.88,0.39-0.88,0.88
			S103.39,253.97,103.88,253.97z"/>
		<path class="st4" d="M109.88,253.97c0.49,0,0.88-0.39,0.88-0.88s-0.39-0.88-0.88-0.88c-0.49,0-0.88,0.39-0.88,0.88
			S109.39,253.97,109.88,253.97z"/>
		<path class="st4" d="M115.88,253.97c0.49,0,0.88-0.39,0.88-0.88s-0.39-0.88-0.88-0.88c-0.49,0-0.88,0.39-0.88,0.88
			S115.39,253.97,115.88,253.97z"/>
		<path class="st4" d="M121.88,253.97c0.49,0,0.88-0.39,0.88-0.88s-0.39-0.88-0.88-0.88c-0.49,0-0.88,0.39-0.88,0.88
			S121.39,253.97,121.88,253.97z"/>
		<path class="st4" d="M127.88,253.97c0.49,0,0.88-0.39,0.88-0.88s-0.39-0.88-0.88-0.88c-0.49,0-0.88,0.39-0.88,0.88
			S127.39,253.97,127.88,253.97z"/>
		<path class="st4" d="M133.88,253.97c0.49,0,0.88-0.39,0.88-0.88s-0.39-0.88-0.88-0.88c-0.49,0-0.88,0.39-0.88,0.88
			S133.39,253.97,133.88,253.97z"/>
		<path class="st4" d="M139.88,253.97c0.49,0,0.88-0.39,0.88-0.88s-0.39-0.88-0.88-0.88c-0.49,0-0.88,0.39-0.88,0.88
			S139.39,253.97,139.88,253.97z"/>
		<path class="st4" d="M145.88,253.97c0.49,0,0.88-0.39,0.88-0.88s-0.39-0.88-0.88-0.88c-0.49,0-0.88,0.39-0.88,0.88
			S145.39,253.97,145.88,253.97z"/>
		<path class="st4" d="M151.88,253.97c0.49,0,0.88-0.39,0.88-0.88s-0.39-0.88-0.88-0.88c-0.49,0-0.88,0.39-0.88,0.88
			S151.39,253.97,151.88,253.97z"/>
		<path class="st4" d="M157.88,253.97c0.49,0,0.88-0.39,0.88-0.88s-0.39-0.88-0.88-0.88c-0.49,0-0.88,0.39-0.88,0.88
			S157.39,253.97,157.88,253.97z"/>
		<path class="st4" d="M163.88,253.97c0.49,0,0.88-0.39,0.88-0.88s-0.39-0.88-0.88-0.88c-0.49,0-0.88,0.39-0.88,0.88
			S163.39,253.97,163.88,253.97z"/>
		<path class="st4" d="M169.88,253.97c0.49,0,0.88-0.39,0.88-0.88s-0.39-0.88-0.88-0.88c-0.49,0-0.88,0.39-0.88,0.88
			S169.39,253.97,169.88,253.97z"/>
		<path class="st4" d="M175.88,253.97c0.49,0,0.88-0.39,0.88-0.88s-0.39-0.88-0.88-0.88c-0.49,0-0.88,0.39-0.88,0.88
			S175.39,253.97,175.88,253.97z"/>
		<path class="st4" d="M181.88,253.97c0.49,0,0.88-0.39,0.88-0.88s-0.39-0.88-0.88-0.88c-0.49,0-0.88,0.39-0.88,0.88
			S181.39,253.97,181.88,253.97z"/>
		<path class="st4" d="M187.88,253.97c0.49,0,0.88-0.39,0.88-0.88s-0.39-0.88-0.88-0.88c-0.49,0-0.88,0.39-0.88,0.88
			S187.39,253.97,187.88,253.97z"/>
		<path class="st4" d="M193.88,253.97c0.49,0,0.88-0.39,0.88-0.88s-0.39-0.88-0.88-0.88c-0.49,0-0.88,0.39-0.88,0.88
			S193.39,253.97,193.88,253.97z"/>
		<path class="st4" d="M199.88,253.97c0.49,0,0.88-0.39,0.88-0.88s-0.39-0.88-0.88-0.88c-0.49,0-0.88,0.39-0.88,0.88
			S199.39,253.97,199.88,253.97z"/>
		<path class="st4" d="M205.88,253.97c0.49,0,0.88-0.39,0.88-0.88s-0.39-0.88-0.88-0.88c-0.49,0-0.88,0.39-0.88,0.88
			S205.39,253.97,205.88,253.97z"/>
		<path class="st4" d="M211.88,253.97c0.49,0,0.88-0.39,0.88-0.88s-0.39-0.88-0.88-0.88c-0.49,0-0.88,0.39-0.88,0.88
			S211.39,253.97,211.88,253.97z"/>
		<path class="st4" d="M217.88,253.97c0.49,0,0.88-0.39,0.88-0.88s-0.39-0.88-0.88-0.88c-0.49,0-0.88,0.39-0.88,0.88
			S217.39,253.97,217.88,253.97z"/>
		<path class="st4" d="M223.88,253.97c0.49,0,0.88-0.39,0.88-0.88s-0.39-0.88-0.88-0.88c-0.49,0-0.88,0.39-0.88,0.88
			S223.39,253.97,223.88,253.97z"/>
		<path class="st4" d="M229.88,253.97c0.49,0,0.88-0.39,0.88-0.88s-0.39-0.88-0.88-0.88c-0.49,0-0.88,0.39-0.88,0.88
			S229.39,253.97,229.88,253.97z"/>
		<path class="st4" d="M235.88,253.97c0.49,0,0.88-0.39,0.88-0.88s-0.39-0.88-0.88-0.88c-0.49,0-0.88,0.39-0.88,0.88
			S235.39,253.97,235.88,253.97z"/>
		<path class="st4" d="M241.88,253.97c0.49,0,0.88-0.39,0.88-0.88s-0.39-0.88-0.88-0.88c-0.49,0-0.88,0.39-0.88,0.88
			S241.39,253.97,241.88,253.97z"/>
		<path class="st4" d="M247.88,253.97c0.49,0,0.88-0.39,0.88-0.88s-0.39-0.88-0.88-0.88c-0.49,0-0.88,0.39-0.88,0.88
			S247.39,253.97,247.88,253.97z"/>
		<path class="st4" d="M253.88,253.97c0.49,0,0.88-0.39,0.88-0.88s-0.39-0.88-0.88-0.88c-0.49,0-0.88,0.39-0.88,0.88
			S253.39,253.97,253.88,253.97z"/>
		<path class="st4" d="M259.88,253.97c0.49,0,0.88-0.39,0.88-0.88s-0.39-0.88-0.88-0.88c-0.49,0-0.88,0.39-0.88,0.88
			S259.39,253.97,259.88,253.97z"/>
		<path class="st4" d="M265.88,253.97c0.49,0,0.88-0.39,0.88-0.88s-0.39-0.88-0.88-0.88c-0.49,0-0.88,0.39-0.88,0.88
			S265.39,253.97,265.88,253.97z"/>
		<path class="st4" d="M271.88,253.97c0.49,0,0.88-0.39,0.88-0.88s-0.39-0.88-0.88-0.88c-0.49,0-0.88,0.39-0.88,0.88
			S271.39,253.97,271.88,253.97z"/>
		<path class="st4" d="M19.88,259.97c0.49,0,0.88-0.39,0.88-0.88s-0.39-0.88-0.88-0.88c-0.49,0-0.88,0.39-0.88,0.88
			S19.39,259.97,19.88,259.97z"/>
		<path class="st4" d="M25.88,259.97c0.49,0,0.88-0.39,0.88-0.88s-0.39-0.88-0.88-0.88c-0.49,0-0.88,0.39-0.88,0.88
			S25.39,259.97,25.88,259.97z"/>
		<path class="st4" d="M31.88,259.97c0.49,0,0.88-0.39,0.88-0.88s-0.39-0.88-0.88-0.88c-0.49,0-0.88,0.39-0.88,0.88
			S31.39,259.97,31.88,259.97z"/>
		<path class="st4" d="M37.88,259.97c0.49,0,0.88-0.39,0.88-0.88s-0.39-0.88-0.88-0.88c-0.49,0-0.88,0.39-0.88,0.88
			S37.39,259.97,37.88,259.97z"/>
		<path class="st4" d="M43.88,259.97c0.49,0,0.88-0.39,0.88-0.88s-0.39-0.88-0.88-0.88c-0.49,0-0.88,0.39-0.88,0.88
			S43.39,259.97,43.88,259.97z"/>
		<path class="st4" d="M49.88,259.97c0.49,0,0.88-0.39,0.88-0.88s-0.39-0.88-0.88-0.88c-0.49,0-0.88,0.39-0.88,0.88
			S49.39,259.97,49.88,259.97z"/>
		<path class="st4" d="M55.88,259.97c0.49,0,0.88-0.39,0.88-0.88s-0.39-0.88-0.88-0.88c-0.49,0-0.88,0.39-0.88,0.88
			S55.39,259.97,55.88,259.97z"/>
		<path class="st4" d="M61.88,259.97c0.49,0,0.88-0.39,0.88-0.88s-0.39-0.88-0.88-0.88c-0.49,0-0.88,0.39-0.88,0.88
			S61.39,259.97,61.88,259.97z"/>
		<path class="st4" d="M67.88,259.97c0.49,0,0.88-0.39,0.88-0.88s-0.39-0.88-0.88-0.88c-0.49,0-0.88,0.39-0.88,0.88
			S67.39,259.97,67.88,259.97z"/>
		<path class="st4" d="M73.88,259.97c0.49,0,0.88-0.39,0.88-0.88s-0.39-0.88-0.88-0.88c-0.49,0-0.88,0.39-0.88,0.88
			S73.39,259.97,73.88,259.97z"/>
		<path class="st4" d="M79.88,259.97c0.49,0,0.88-0.39,0.88-0.88s-0.39-0.88-0.88-0.88c-0.49,0-0.88,0.39-0.88,0.88
			S79.39,259.97,79.88,259.97z"/>
		<path class="st4" d="M85.88,259.97c0.49,0,0.88-0.39,0.88-0.88s-0.39-0.88-0.88-0.88c-0.49,0-0.88,0.39-0.88,0.88
			S85.39,259.97,85.88,259.97z"/>
		<path class="st4" d="M91.88,259.97c0.49,0,0.88-0.39,0.88-0.88s-0.39-0.88-0.88-0.88c-0.49,0-0.88,0.39-0.88,0.88
			S91.39,259.97,91.88,259.97z"/>
		<path class="st4" d="M97.88,259.97c0.49,0,0.88-0.39,0.88-0.88s-0.39-0.88-0.88-0.88c-0.49,0-0.88,0.39-0.88,0.88
			S97.39,259.97,97.88,259.97z"/>
		<path class="st4" d="M103.88,259.97c0.49,0,0.88-0.39,0.88-0.88s-0.39-0.88-0.88-0.88c-0.49,0-0.88,0.39-0.88,0.88
			S103.39,259.97,103.88,259.97z"/>
		<path class="st4" d="M109.88,259.97c0.49,0,0.88-0.39,0.88-0.88s-0.39-0.88-0.88-0.88c-0.49,0-0.88,0.39-0.88,0.88
			S109.39,259.97,109.88,259.97z"/>
		<path class="st4" d="M115.88,259.97c0.49,0,0.88-0.39,0.88-0.88s-0.39-0.88-0.88-0.88c-0.49,0-0.88,0.39-0.88,0.88
			S115.39,259.97,115.88,259.97z"/>
		<path class="st4" d="M121.88,259.97c0.49,0,0.88-0.39,0.88-0.88s-0.39-0.88-0.88-0.88c-0.49,0-0.88,0.39-0.88,0.88
			S121.39,259.97,121.88,259.97z"/>
		<path class="st4" d="M127.88,259.97c0.49,0,0.88-0.39,0.88-0.88s-0.39-0.88-0.88-0.88c-0.49,0-0.88,0.39-0.88,0.88
			S127.39,259.97,127.88,259.97z"/>
		<path class="st4" d="M133.88,259.97c0.49,0,0.88-0.39,0.88-0.88s-0.39-0.88-0.88-0.88c-0.49,0-0.88,0.39-0.88,0.88
			S133.39,259.97,133.88,259.97z"/>
		<path class="st4" d="M139.88,259.97c0.49,0,0.88-0.39,0.88-0.88s-0.39-0.88-0.88-0.88c-0.49,0-0.88,0.39-0.88,0.88
			S139.39,259.97,139.88,259.97z"/>
		<path class="st4" d="M145.88,259.97c0.49,0,0.88-0.39,0.88-0.88s-0.39-0.88-0.88-0.88c-0.49,0-0.88,0.39-0.88,0.88
			S145.39,259.97,145.88,259.97z"/>
		<path class="st4" d="M151.88,259.97c0.49,0,0.88-0.39,0.88-0.88s-0.39-0.88-0.88-0.88c-0.49,0-0.88,0.39-0.88,0.88
			S151.39,259.97,151.88,259.97z"/>
		<path class="st4" d="M157.88,259.97c0.49,0,0.88-0.39,0.88-0.88s-0.39-0.88-0.88-0.88c-0.49,0-0.88,0.39-0.88,0.88
			S157.39,259.97,157.88,259.97z"/>
		<path class="st4" d="M163.88,259.97c0.49,0,0.88-0.39,0.88-0.88s-0.39-0.88-0.88-0.88c-0.49,0-0.88,0.39-0.88,0.88
			S163.39,259.97,163.88,259.97z"/>
		<path class="st4" d="M169.88,259.97c0.49,0,0.88-0.39,0.88-0.88s-0.39-0.88-0.88-0.88c-0.49,0-0.88,0.39-0.88,0.88
			S169.39,259.97,169.88,259.97z"/>
		<path class="st4" d="M175.88,259.97c0.49,0,0.88-0.39,0.88-0.88s-0.39-0.88-0.88-0.88c-0.49,0-0.88,0.39-0.88,0.88
			S175.39,259.97,175.88,259.97z"/>
		<path class="st4" d="M181.88,259.97c0.49,0,0.88-0.39,0.88-0.88s-0.39-0.88-0.88-0.88c-0.49,0-0.88,0.39-0.88,0.88
			S181.39,259.97,181.88,259.97z"/>
		<path class="st4" d="M187.88,259.97c0.49,0,0.88-0.39,0.88-0.88s-0.39-0.88-0.88-0.88c-0.49,0-0.88,0.39-0.88,0.88
			S187.39,259.97,187.88,259.97z"/>
		<path class="st4" d="M193.88,259.97c0.49,0,0.88-0.39,0.88-0.88s-0.39-0.88-0.88-0.88c-0.49,0-0.88,0.39-0.88,0.88
			S193.39,259.97,193.88,259.97z"/>
		<path class="st4" d="M199.88,259.97c0.49,0,0.88-0.39,0.88-0.88s-0.39-0.88-0.88-0.88c-0.49,0-0.88,0.39-0.88,0.88
			S199.39,259.97,199.88,259.97z"/>
		<path class="st4" d="M205.88,259.97c0.49,0,0.88-0.39,0.88-0.88s-0.39-0.88-0.88-0.88c-0.49,0-0.88,0.39-0.88,0.88
			S205.39,259.97,205.88,259.97z"/>
		<path class="st4" d="M211.88,259.97c0.49,0,0.88-0.39,0.88-0.88s-0.39-0.88-0.88-0.88c-0.49,0-0.88,0.39-0.88,0.88
			S211.39,259.97,211.88,259.97z"/>
		<path class="st4" d="M217.88,259.97c0.49,0,0.88-0.39,0.88-0.88s-0.39-0.88-0.88-0.88c-0.49,0-0.88,0.39-0.88,0.88
			S217.39,259.97,217.88,259.97z"/>
		<path class="st4" d="M223.88,259.97c0.49,0,0.88-0.39,0.88-0.88s-0.39-0.88-0.88-0.88c-0.49,0-0.88,0.39-0.88,0.88
			S223.39,259.97,223.88,259.97z"/>
		<path class="st4" d="M229.88,259.97c0.49,0,0.88-0.39,0.88-0.88s-0.39-0.88-0.88-0.88c-0.49,0-0.88,0.39-0.88,0.88
			S229.39,259.97,229.88,259.97z"/>
		<path class="st4" d="M235.88,259.97c0.49,0,0.88-0.39,0.88-0.88s-0.39-0.88-0.88-0.88c-0.49,0-0.88,0.39-0.88,0.88
			S235.39,259.97,235.88,259.97z"/>
		<path class="st4" d="M241.88,259.97c0.49,0,0.88-0.39,0.88-0.88s-0.39-0.88-0.88-0.88c-0.49,0-0.88,0.39-0.88,0.88
			S241.39,259.97,241.88,259.97z"/>
		<path class="st4" d="M247.88,259.97c0.49,0,0.88-0.39,0.88-0.88s-0.39-0.88-0.88-0.88c-0.49,0-0.88,0.39-0.88,0.88
			S247.39,259.97,247.88,259.97z"/>
		<path class="st4" d="M253.88,259.97c0.49,0,0.88-0.39,0.88-0.88s-0.39-0.88-0.88-0.88c-0.49,0-0.88,0.39-0.88,0.88
			S253.39,259.97,253.88,259.97z"/>
		<path class="st4" d="M259.88,259.97c0.49,0,0.88-0.39,0.88-0.88s-0.39-0.88-0.88-0.88c-0.49,0-0.88,0.39-0.88,0.88
			S259.39,259.97,259.88,259.97z"/>
		<path class="st4" d="M265.88,259.97c0.49,0,0.88-0.39,0.88-0.88s-0.39-0.88-0.88-0.88c-0.49,0-0.88,0.39-0.88,0.88
			S265.39,259.97,265.88,259.97z"/>
		<path class="st4" d="M271.88,259.97c0.49,0,0.88-0.39,0.88-0.88s-0.39-0.88-0.88-0.88c-0.49,0-0.88,0.39-0.88,0.88
			S271.39,259.97,271.88,259.97z"/>
		<path class="st4" d="M19.88,265.97c0.49,0,0.88-0.39,0.88-0.88s-0.39-0.88-0.88-0.88c-0.49,0-0.88,0.39-0.88,0.88
			S19.39,265.97,19.88,265.97z"/>
		<path class="st4" d="M25.88,265.97c0.49,0,0.88-0.39,0.88-0.88s-0.39-0.88-0.88-0.88c-0.49,0-0.88,0.39-0.88,0.88
			S25.39,265.97,25.88,265.97z"/>
		<path class="st4" d="M31.88,265.97c0.49,0,0.88-0.39,0.88-0.88s-0.39-0.88-0.88-0.88c-0.49,0-0.88,0.39-0.88,0.88
			S31.39,265.97,31.88,265.97z"/>
		<path class="st4" d="M37.88,265.97c0.49,0,0.88-0.39,0.88-0.88s-0.39-0.88-0.88-0.88c-0.49,0-0.88,0.39-0.88,0.88
			S37.39,265.97,37.88,265.97z"/>
		<path class="st4" d="M43.88,265.97c0.49,0,0.88-0.39,0.88-0.88s-0.39-0.88-0.88-0.88c-0.49,0-0.88,0.39-0.88,0.88
			S43.39,265.97,43.88,265.97z"/>
		<path class="st4" d="M49.88,265.97c0.49,0,0.88-0.39,0.88-0.88s-0.39-0.88-0.88-0.88c-0.49,0-0.88,0.39-0.88,0.88
			S49.39,265.97,49.88,265.97z"/>
		<path class="st4" d="M55.88,265.97c0.49,0,0.88-0.39,0.88-0.88s-0.39-0.88-0.88-0.88c-0.49,0-0.88,0.39-0.88,0.88
			S55.39,265.97,55.88,265.97z"/>
		<path class="st4" d="M61.88,265.97c0.49,0,0.88-0.39,0.88-0.88s-0.39-0.88-0.88-0.88c-0.49,0-0.88,0.39-0.88,0.88
			S61.39,265.97,61.88,265.97z"/>
		<path class="st4" d="M67.88,265.97c0.49,0,0.88-0.39,0.88-0.88s-0.39-0.88-0.88-0.88c-0.49,0-0.88,0.39-0.88,0.88
			S67.39,265.97,67.88,265.97z"/>
		<path class="st4" d="M73.88,265.97c0.49,0,0.88-0.39,0.88-0.88s-0.39-0.88-0.88-0.88c-0.49,0-0.88,0.39-0.88,0.88
			S73.39,265.97,73.88,265.97z"/>
		<path class="st4" d="M79.88,265.97c0.49,0,0.88-0.39,0.88-0.88s-0.39-0.88-0.88-0.88c-0.49,0-0.88,0.39-0.88,0.88
			S79.39,265.97,79.88,265.97z"/>
		<path class="st4" d="M85.88,265.97c0.49,0,0.88-0.39,0.88-0.88s-0.39-0.88-0.88-0.88c-0.49,0-0.88,0.39-0.88,0.88
			S85.39,265.97,85.88,265.97z"/>
		<path class="st4" d="M91.88,265.97c0.49,0,0.88-0.39,0.88-0.88s-0.39-0.88-0.88-0.88c-0.49,0-0.88,0.39-0.88,0.88
			S91.39,265.97,91.88,265.97z"/>
		<path class="st4" d="M97.88,265.97c0.49,0,0.88-0.39,0.88-0.88s-0.39-0.88-0.88-0.88c-0.49,0-0.88,0.39-0.88,0.88
			S97.39,265.97,97.88,265.97z"/>
		<path class="st4" d="M103.88,265.97c0.49,0,0.88-0.39,0.88-0.88s-0.39-0.88-0.88-0.88c-0.49,0-0.88,0.39-0.88,0.88
			S103.39,265.97,103.88,265.97z"/>
		<path class="st4" d="M109.88,265.97c0.49,0,0.88-0.39,0.88-0.88s-0.39-0.88-0.88-0.88c-0.49,0-0.88,0.39-0.88,0.88
			S109.39,265.97,109.88,265.97z"/>
		<path class="st4" d="M115.88,265.97c0.49,0,0.88-0.39,0.88-0.88s-0.39-0.88-0.88-0.88c-0.49,0-0.88,0.39-0.88,0.88
			S115.39,265.97,115.88,265.97z"/>
		<path class="st4" d="M121.88,265.97c0.49,0,0.88-0.39,0.88-0.88s-0.39-0.88-0.88-0.88c-0.49,0-0.88,0.39-0.88,0.88
			S121.39,265.97,121.88,265.97z"/>
		<path class="st4" d="M127.88,265.97c0.49,0,0.88-0.39,0.88-0.88s-0.39-0.88-0.88-0.88c-0.49,0-0.88,0.39-0.88,0.88
			S127.39,265.97,127.88,265.97z"/>
		<path class="st4" d="M133.88,265.97c0.49,0,0.88-0.39,0.88-0.88s-0.39-0.88-0.88-0.88c-0.49,0-0.88,0.39-0.88,0.88
			S133.39,265.97,133.88,265.97z"/>
		<path class="st4" d="M139.88,265.97c0.49,0,0.88-0.39,0.88-0.88s-0.39-0.88-0.88-0.88c-0.49,0-0.88,0.39-0.88,0.88
			S139.39,265.97,139.88,265.97z"/>
		<path class="st4" d="M145.88,265.97c0.49,0,0.88-0.39,0.88-0.88s-0.39-0.88-0.88-0.88c-0.49,0-0.88,0.39-0.88,0.88
			S145.39,265.97,145.88,265.97z"/>
		<path class="st4" d="M151.88,265.97c0.49,0,0.88-0.39,0.88-0.88s-0.39-0.88-0.88-0.88c-0.49,0-0.88,0.39-0.88,0.88
			S151.39,265.97,151.88,265.97z"/>
		<path class="st4" d="M157.88,265.97c0.49,0,0.88-0.39,0.88-0.88s-0.39-0.88-0.88-0.88c-0.49,0-0.88,0.39-0.88,0.88
			S157.39,265.97,157.88,265.97z"/>
		<path class="st4" d="M163.88,265.97c0.49,0,0.88-0.39,0.88-0.88s-0.39-0.88-0.88-0.88c-0.49,0-0.88,0.39-0.88,0.88
			S163.39,265.97,163.88,265.97z"/>
		<path class="st4" d="M169.88,265.97c0.49,0,0.88-0.39,0.88-0.88s-0.39-0.88-0.88-0.88c-0.49,0-0.88,0.39-0.88,0.88
			S169.39,265.97,169.88,265.97z"/>
		<path class="st4" d="M175.88,265.97c0.49,0,0.88-0.39,0.88-0.88s-0.39-0.88-0.88-0.88c-0.49,0-0.88,0.39-0.88,0.88
			S175.39,265.97,175.88,265.97z"/>
		<path class="st4" d="M181.88,265.97c0.49,0,0.88-0.39,0.88-0.88s-0.39-0.88-0.88-0.88c-0.49,0-0.88,0.39-0.88,0.88
			S181.39,265.97,181.88,265.97z"/>
		<path class="st4" d="M187.88,265.97c0.49,0,0.88-0.39,0.88-0.88s-0.39-0.88-0.88-0.88c-0.49,0-0.88,0.39-0.88,0.88
			S187.39,265.97,187.88,265.97z"/>
		<path class="st4" d="M193.88,265.97c0.49,0,0.88-0.39,0.88-0.88s-0.39-0.88-0.88-0.88c-0.49,0-0.88,0.39-0.88,0.88
			S193.39,265.97,193.88,265.97z"/>
		<path class="st4" d="M199.88,265.97c0.49,0,0.88-0.39,0.88-0.88s-0.39-0.88-0.88-0.88c-0.49,0-0.88,0.39-0.88,0.88
			S199.39,265.97,199.88,265.97z"/>
		<path class="st4" d="M205.88,265.97c0.49,0,0.88-0.39,0.88-0.88s-0.39-0.88-0.88-0.88c-0.49,0-0.88,0.39-0.88,0.88
			S205.39,265.97,205.88,265.97z"/>
		<path class="st4" d="M211.88,265.97c0.49,0,0.88-0.39,0.88-0.88s-0.39-0.88-0.88-0.88c-0.49,0-0.88,0.39-0.88,0.88
			S211.39,265.97,211.88,265.97z"/>
		<path class="st4" d="M217.88,265.97c0.49,0,0.88-0.39,0.88-0.88s-0.39-0.88-0.88-0.88c-0.49,0-0.88,0.39-0.88,0.88
			S217.39,265.97,217.88,265.97z"/>
		<path class="st4" d="M223.88,265.97c0.49,0,0.88-0.39,0.88-0.88s-0.39-0.88-0.88-0.88c-0.49,0-0.88,0.39-0.88,0.88
			S223.39,265.97,223.88,265.97z"/>
		<path class="st4" d="M229.88,265.97c0.49,0,0.88-0.39,0.88-0.88s-0.39-0.88-0.88-0.88c-0.49,0-0.88,0.39-0.88,0.88
			S229.39,265.97,229.88,265.97z"/>
		<path class="st4" d="M235.88,265.97c0.49,0,0.88-0.39,0.88-0.88s-0.39-0.88-0.88-0.88c-0.49,0-0.88,0.39-0.88,0.88
			S235.39,265.97,235.88,265.97z"/>
		<path class="st4" d="M241.88,265.97c0.49,0,0.88-0.39,0.88-0.88s-0.39-0.88-0.88-0.88c-0.49,0-0.88,0.39-0.88,0.88
			S241.39,265.97,241.88,265.97z"/>
		<path class="st4" d="M247.88,265.97c0.49,0,0.88-0.39,0.88-0.88s-0.39-0.88-0.88-0.88c-0.49,0-0.88,0.39-0.88,0.88
			S247.39,265.97,247.88,265.97z"/>
		<path class="st4" d="M253.88,265.97c0.49,0,0.88-0.39,0.88-0.88s-0.39-0.88-0.88-0.88c-0.49,0-0.88,0.39-0.88,0.88
			S253.39,265.97,253.88,265.97z"/>
		<path class="st4" d="M259.88,265.97c0.49,0,0.88-0.39,0.88-0.88s-0.39-0.88-0.88-0.88c-0.49,0-0.88,0.39-0.88,0.88
			S259.39,265.97,259.88,265.97z"/>
		<path class="st4" d="M265.88,265.97c0.49,0,0.88-0.39,0.88-0.88s-0.39-0.88-0.88-0.88c-0.49,0-0.88,0.39-0.88,0.88
			S265.39,265.97,265.88,265.97z"/>
		<path class="st4" d="M271.88,265.97c0.49,0,0.88-0.39,0.88-0.88s-0.39-0.88-0.88-0.88c-0.49,0-0.88,0.39-0.88,0.88
			S271.39,265.97,271.88,265.97z"/>
	</g>
	<g class="st15">
		<g class="st16">
			<path class="st17" d="M222.56,146.68l-0.03-5.79l-2.81,4.71h-1.37l-2.79-4.56v5.64h-2.86v-10.93h2.54l3.84,6.31l3.75-6.31h2.54
				l0.03,10.93H222.56z"/>
			<path class="st17" d="M230.76,146.17c-0.92-0.49-1.64-1.17-2.17-2.03c-0.53-0.86-0.79-1.84-0.79-2.92c0-1.08,0.26-2.06,0.79-2.92
				c0.53-0.86,1.25-1.54,2.17-2.03s1.96-0.73,3.11-0.73c1.16,0,2.19,0.24,3.11,0.73s1.64,1.17,2.17,2.03
				c0.53,0.86,0.79,1.84,0.79,2.92c0,1.08-0.26,2.06-0.79,2.92c-0.53,0.86-1.25,1.54-2.17,2.03c-0.92,0.49-1.96,0.73-3.11,0.73
				C232.72,146.9,231.69,146.65,230.76,146.17z M235.38,143.95c0.45-0.26,0.8-0.63,1.06-1.1c0.26-0.47,0.39-1.02,0.39-1.63
				c0-0.61-0.13-1.16-0.39-1.63c-0.26-0.47-0.61-0.84-1.06-1.1c-0.45-0.26-0.95-0.39-1.5-0.39c-0.55,0-1.05,0.13-1.5,0.39
				c-0.45,0.26-0.8,0.63-1.06,1.1c-0.26,0.47-0.39,1.02-0.39,1.63c0,0.61,0.13,1.16,0.39,1.63c0.26,0.47,0.61,0.84,1.06,1.1
				c0.45,0.26,0.95,0.39,1.5,0.39C234.43,144.34,234.93,144.21,235.38,143.95z"/>
			<path class="st17" d="M242.35,135.75h5.17c1.2,0,2.26,0.22,3.18,0.67c0.93,0.45,1.64,1.08,2.15,1.9
				c0.51,0.82,0.76,1.78,0.76,2.89c0,1.1-0.25,2.07-0.76,2.89c-0.51,0.82-1.23,1.46-2.15,1.9c-0.93,0.45-1.99,0.67-3.18,0.67h-5.17
				V135.75z M247.4,144.21c0.94,0,1.69-0.27,2.26-0.8c0.57-0.53,0.85-1.26,0.85-2.2c0-0.94-0.28-1.67-0.85-2.2
				c-0.57-0.53-1.32-0.8-2.26-0.8h-1.95v5.99H247.4z"/>
			<path class="st17" d="M264.8,144.29v2.39h-8.77v-10.93h8.57v2.39h-5.51v1.84h4.85v2.31h-4.85v2H264.8z"/>
			<path class="st17" d="M272.08,143.78h-1.69v2.9h-3.09v-10.93h5c0.99,0,1.85,0.16,2.58,0.49c0.73,0.33,1.29,0.8,1.69,1.4
				c0.4,0.61,0.59,1.32,0.59,2.15c0,0.79-0.18,1.48-0.55,2.07c-0.37,0.59-0.9,1.05-1.58,1.38l2.36,3.43h-3.31L272.08,143.78z
				 M273.54,138.61c-0.32-0.28-0.8-0.42-1.44-0.42h-1.72v3.2h1.72c0.63,0,1.11-0.14,1.44-0.41c0.32-0.28,0.48-0.67,0.48-1.18
				C274.03,139.29,273.87,138.89,273.54,138.61z"/>
			<path class="st17" d="M290.03,135.75v10.93h-2.54l-4.82-5.82v5.82h-3.03v-10.93h2.54l4.82,5.82v-5.82H290.03z"/>
		</g>
		<g class="st16">
			<path class="st17" d="M227.01,153.14c0.13,0.18,0.2,0.39,0.2,0.63c0,0.36-0.15,0.64-0.44,0.84c-0.29,0.2-0.71,0.3-1.26,0.3h-2.23
				v-4.13h2.11c0.53,0,0.93,0.1,1.2,0.29c0.28,0.19,0.41,0.46,0.41,0.79c0,0.2-0.05,0.37-0.14,0.53c-0.1,0.16-0.23,0.28-0.41,0.37
				C226.69,152.84,226.88,152.97,227.01,153.14z M224.44,151.62v0.8h0.8c0.39,0,0.59-0.13,0.59-0.4c0-0.26-0.2-0.4-0.59-0.4H224.44z
				 M226.03,153.65c0-0.28-0.2-0.42-0.61-0.42h-0.98v0.84h0.98C225.83,154.07,226.03,153.93,226.03,153.65z"/>
			<path class="st17" d="M231.77,154.11h-1.75l-0.32,0.8h-1.19l1.82-4.13h1.15l1.83,4.13h-1.22L231.77,154.11z M231.43,153.25
				l-0.53-1.32l-0.53,1.32H231.43z"/>
			<path class="st17" d="M235.66,154.72c-0.34-0.18-0.61-0.44-0.81-0.76c-0.2-0.33-0.3-0.7-0.3-1.11c0-0.41,0.1-0.78,0.3-1.11
				c0.2-0.33,0.47-0.58,0.81-0.76c0.34-0.18,0.73-0.27,1.17-0.27c0.38,0,0.72,0.07,1.02,0.2c0.3,0.13,0.56,0.33,0.76,0.58
				l-0.74,0.67c-0.27-0.32-0.59-0.48-0.97-0.48c-0.22,0-0.42,0.05-0.6,0.15c-0.18,0.1-0.31,0.24-0.41,0.42
				c-0.1,0.18-0.14,0.38-0.14,0.62c0,0.23,0.05,0.44,0.14,0.62c0.1,0.18,0.23,0.32,0.41,0.42c0.18,0.1,0.38,0.15,0.6,0.15
				c0.38,0,0.71-0.16,0.97-0.48l0.74,0.67c-0.2,0.25-0.45,0.44-0.76,0.58c-0.3,0.13-0.64,0.2-1.02,0.2
				C236.39,154.99,236,154.9,235.66,154.72z"/>
			<path class="st17" d="M241.9,153.41l-0.44,0.47v1.03h-1.16v-4.13h1.16v1.72l1.6-1.72h1.29l-1.69,1.83l1.78,2.3h-1.36
				L241.9,153.41z"/>
			<path class="st17" d="M248.55,152.76h1.03v1.71c-0.24,0.17-0.51,0.3-0.81,0.39c-0.31,0.09-0.61,0.14-0.92,0.14
				c-0.43,0-0.82-0.09-1.17-0.27c-0.35-0.18-0.62-0.44-0.81-0.76c-0.2-0.33-0.3-0.7-0.3-1.11c0-0.41,0.1-0.78,0.3-1.11
				c0.2-0.33,0.47-0.58,0.82-0.76c0.35-0.18,0.75-0.27,1.19-0.27c0.39,0,0.73,0.06,1.04,0.19s0.56,0.32,0.77,0.56l-0.74,0.67
				c-0.28-0.31-0.61-0.46-1-0.46c-0.35,0-0.64,0.11-0.86,0.32c-0.22,0.21-0.32,0.5-0.32,0.86c0,0.23,0.05,0.43,0.15,0.61
				c0.1,0.18,0.24,0.32,0.41,0.42c0.18,0.1,0.38,0.15,0.61,0.15c0.22,0,0.43-0.04,0.63-0.14V152.76z"/>
			<path class="st17" d="M253.31,153.81h-0.64v1.1h-1.17v-4.13h1.89c0.37,0,0.7,0.06,0.97,0.19c0.28,0.12,0.49,0.3,0.64,0.53
				c0.15,0.23,0.22,0.5,0.22,0.81c0,0.3-0.07,0.56-0.21,0.78c-0.14,0.22-0.34,0.4-0.6,0.52l0.89,1.3h-1.25L253.31,153.81z
				 M253.87,151.86c-0.12-0.11-0.3-0.16-0.54-0.16h-0.65v1.21h0.65c0.24,0,0.42-0.05,0.54-0.16c0.12-0.1,0.18-0.25,0.18-0.45
				C254.05,152.12,253.99,151.97,253.87,151.86z"/>
			<path class="st17" d="M257.96,154.72c-0.35-0.19-0.62-0.44-0.82-0.77c-0.2-0.33-0.3-0.69-0.3-1.1c0-0.41,0.1-0.78,0.3-1.1
				c0.2-0.33,0.47-0.58,0.82-0.77c0.35-0.19,0.74-0.28,1.18-0.28c0.44,0,0.83,0.09,1.18,0.28c0.35,0.19,0.62,0.44,0.82,0.77
				c0.2,0.33,0.3,0.69,0.3,1.1c0,0.41-0.1,0.78-0.3,1.1c-0.2,0.33-0.47,0.58-0.82,0.77c-0.35,0.18-0.74,0.28-1.18,0.28
				C258.7,154.99,258.31,154.9,257.96,154.72z M259.7,153.88c0.17-0.1,0.3-0.24,0.4-0.42c0.1-0.18,0.15-0.38,0.15-0.62
				c0-0.23-0.05-0.44-0.15-0.62c-0.1-0.18-0.23-0.32-0.4-0.42c-0.17-0.1-0.36-0.15-0.57-0.15s-0.4,0.05-0.57,0.15
				c-0.17,0.1-0.3,0.24-0.4,0.42c-0.1,0.18-0.15,0.38-0.15,0.62c0,0.23,0.05,0.44,0.15,0.62c0.1,0.18,0.23,0.32,0.4,0.42
				c0.17,0.1,0.36,0.15,0.57,0.15S259.53,153.98,259.7,153.88z"/>
			<path class="st17" d="M263.7,154.49c-0.34-0.33-0.51-0.81-0.51-1.42v-2.29h1.17v2.26c0,0.66,0.26,0.99,0.79,0.99
				c0.52,0,0.78-0.33,0.78-0.99v-2.26h1.15v2.29c0,0.61-0.17,1.09-0.51,1.42c-0.34,0.33-0.82,0.5-1.43,0.5
				C264.52,154.99,264.05,154.83,263.7,154.49z"/>
			<path class="st17" d="M272.98,150.78v4.13h-0.96l-1.82-2.2v2.2h-1.15v-4.13h0.96l1.82,2.2v-2.2H272.98z"/>
			<path class="st17" d="M274.99,150.78h1.95c0.45,0,0.85,0.08,1.2,0.25c0.35,0.17,0.62,0.41,0.81,0.72
				c0.19,0.31,0.29,0.67,0.29,1.09c0,0.42-0.1,0.78-0.29,1.09c-0.19,0.31-0.46,0.55-0.81,0.72c-0.35,0.17-0.75,0.25-1.2,0.25h-1.95
				V150.78z M276.9,153.98c0.35,0,0.64-0.1,0.85-0.3c0.21-0.2,0.32-0.48,0.32-0.83c0-0.35-0.11-0.63-0.32-0.83
				c-0.21-0.2-0.5-0.3-0.85-0.3h-0.74v2.27H276.9z"/>
		</g>
	</g>
</g>
</svg>
